<svg width="1296" height="289" viewBox="0 0 1296 289" fill="none" xmlns="http://www.w3.org/2000/svg"
    xmlns:xlink="http://www.w3.org/1999/xlink">
    <g clip-path="url(#clip0_403_6544)">
        <path d="M878.423 104.538L808.823 174.138L878.423 243.738L948.023 174.138L878.423 104.538Z" fill="#EAECF0">
            <animate attributeName="opacity" dur="6s" repeatCount="indefinite" values="0;1;0" keyTimes="0;0.5;1"
                begin="0.1s" />
        </path>
        <path d="M843.63 139.341L808.83 174.141L843.63 208.941L878.43 174.141L843.63 139.341Z" fill="#F2F4F7">
            <animate attributeName="opacity" dur="6s" repeatCount="indefinite" values="0;1;0" keyTimes="0;0.5;1"
                begin="0.2s" />
        </path>
        <path d="M821.878 139.337L787.078 174.137L821.878 208.937L856.678 174.137L821.878 139.337Z" fill="#F9FAFB">

            <animate attributeName="opacity" dur="6s" repeatCount="indefinite" values="0;1;0" keyTimes="0;0.5;1"
                begin="0.3s" />
        </path>
        <path d="M1296.02 243.737L1365.62 174.137L1296.02 104.537L1226.42 174.137L1296.02 243.737Z" fill="#F2F4F7">

            <animate attributeName="opacity" dur="6s" repeatCount="indefinite" values="0;1;0" keyTimes="0;0.5;1"
                begin="0.4s" />
        </path>
        <path d="M1122.02 348.14L1296.02 174.14L1122.02 0.139926L948.018 174.14L1122.02 348.14Z" fill="#F9FAFB">
            <animate attributeName="opacity" dur="6s" repeatCount="indefinite" values="0;1;0" keyTimes="0;0.5;1"
                begin="0.5s" />
        </path>
        <path d="M1052.42 348.14L1226.42 174.14L1052.42 0.140048L878.419 174.14L1052.42 348.14Z" fill="#EAECF0">
            <animate attributeName="opacity" dur="6s" repeatCount="indefinite" values="0;1;0" keyTimes="0;0.5;1"
                begin="0.6s" />
        </path>
        <path d="M982.818 278.54L1087.22 174.14L982.818 69.7402L878.418 174.14L982.818 278.54Z" fill="#F2F4F7">
            <animate attributeName="opacity" dur="6s" repeatCount="indefinite" values="0;1;0" keyTimes="0;0.5;1"
                begin="0.7s" />
        </path>
        <path d="M1017.63 243.737L1087.23 174.137L1017.63 104.537L948.025 174.137L1017.63 243.737Z" fill="#D0D5DD">

            <animate attributeName="opacity" dur="6s" repeatCount="indefinite" values="0;1;0" keyTimes="0;0.5;1"
                begin="0.8s" />
        </path>
        <path d="M1122.02 278.54L1226.42 174.14L1122.02 69.7399L1017.62 174.14L1122.02 278.54Z" fill="#D0D5DD">
            <animate attributeName="opacity" dur="6s" repeatCount="indefinite" values="0;1;0" keyTimes="0;0.5;1"
                begin="0.9s" />
        </path>
        <path d="M1087.22 243.737L1156.82 174.137L1087.22 104.537L1017.63 174.137L1087.22 243.737Z" fill="#FCFCFD">

            <animate attributeName="opacity" dur="6s" repeatCount="indefinite" values="0;1;0" keyTimes="0;0.5;1"
                begin="1s" />
        </path>
        <path d="M1122.02 208.94L1156.82 174.14L1122.02 139.34L1087.22 174.14L1122.02 208.94Z" fill="#EAECF0">
            <animate attributeName="opacity" dur="6s" repeatCount="indefinite" values="0;1;0" keyTimes="0;0.5;1"
                begin="1.1s" />
        </path>
        <path d="M808.818 202.891L739.219 272.491L808.818 342.091L878.418 272.491L808.818 202.891Z" fill="#FFD6AE">

            <animate attributeName="opacity" dur="6s" repeatCount="indefinite" values="0;1;0" keyTimes="0;0.5;1"
                begin="1.2s" />
        </path>
        <path d="M774.025 237.694L739.225 272.493L774.025 307.293L808.825 272.494L774.025 237.694Z" fill="#FFE6D5">

            <animate attributeName="opacity" dur="6s" repeatCount="indefinite" values="0;1;0" keyTimes="0;0.5;1"
                begin="1.3s" />
        </path>
        <path d="M752.273 237.69L717.473 272.49L752.273 307.29L787.073 272.49L752.273 237.69Z" fill="#FFF4ED">
            <animate attributeName="opacity" dur="6s" repeatCount="indefinite" values="0;1;0" keyTimes="0;0.5;1"
                begin="1.4s" />
        </path>
        <g opacity="0.8">
            <path d="M495.514 0.136089L425.914 69.7361L495.514 139.336L565.114 69.7361L495.514 0.136089Z"
                fill="#FFD6AE">
                <animate attributeName="opacity" dur="6s" repeatCount="indefinite" values="0;1;0" keyTimes="0;0.5;1"
                    begin="1.5" />
            </path>
            <path d="M460.721 34.9387L425.921 69.7387L460.721 104.539L495.521 69.7387L460.721 34.9387Z" fill="#FFE6D5">
                <animate attributeName="opacity" dur="6s" repeatCount="indefinite" values="0;1;0" keyTimes="0;0.5;1"
                    begin="1.6" />
            </path>
            <path d="M438.968 34.9356L404.168 69.7355L438.968 104.536L473.768 69.7355L438.968 34.9356Z" fill="#FFF4ED">
                <animate attributeName="opacity" dur="6s" repeatCount="indefinite" values="0;1;0" keyTimes="0;0.5;1"
                    begin="1.7" />
            </path>
            <path d="M913.115 139.335L982.715 69.7347L913.115 0.134747L843.515 69.7347L913.115 139.335Z" fill="#FFE6D5">
                <animate attributeName="opacity" dur="6s" repeatCount="indefinite" values="0;1;0" keyTimes="0;0.5;1"
                    begin="1.8" />
            </path>
            <path d="M1204.65 139.335L1274.25 69.7347L1204.65 0.134747L1135.05 69.7347L1204.65 139.335Z" fill="#FFE6D5">
                <animate attributeName="opacity" dur="6s" repeatCount="indefinite" values="0;1;0" keyTimes="0;0.5;1"
                    begin="1.9" />
            </path>
            <path d="M739.109 243.738L913.109 69.7379L739.109 -104.262L565.109 69.7379L739.109 243.738Z" fill="#FFF4ED">
                <animate attributeName="opacity" dur="6s" repeatCount="indefinite" values="0;1;0" keyTimes="0;0.5;1"
                    begin="2" />
            </path>
            <path d="M669.509 243.738L843.509 69.7381L669.509 -104.262L495.509 69.7381L669.509 243.738Z" fill="#FFD6AE">
                <animate attributeName="opacity" dur="6s" repeatCount="indefinite" values="0;1;0" keyTimes="0;0.5;1"
                    begin="2.1" />
            </path>
            <path d="M599.909 174.138L704.309 69.7382L599.909 -34.6617L495.509 69.7382L599.909 174.138Z" fill="#FFE6D5">
                <animate attributeName="opacity" dur="6s" repeatCount="indefinite" values="0;1;0" keyTimes="0;0.5;1"
                    begin="2.2" />
            </path>
            <path d="M634.716 139.335L704.316 69.7354L634.716 0.135479L565.116 69.7355L634.716 139.335Z" fill="#FF9C66">
                <animate attributeName="opacity" dur="6s" repeatCount="indefinite" values="0;1;0" keyTimes="0;0.5;1"
                    begin="2.3" />
            </path>
            <path d="M739.109 174.138L843.509 69.7379L739.109 -34.662L634.709 69.738L739.109 174.138Z" fill="#FF9C66">
                <animate attributeName="opacity" dur="6s" repeatCount="indefinite" values="0;1;0" keyTimes="0;0.5;1"
                    begin="2.4" />
            </path>
            <path d="M704.315 139.335L773.915 69.7352L704.315 0.135266L634.715 69.7352L704.315 139.335Z" fill="#FFF9F5">
                <animate attributeName="opacity" dur="6s" repeatCount="indefinite" values="0;1;0" keyTimes="0;0.5;1"
                    begin="2.5" />
            </path>
            <path d="M947.909 104.537L982.708 69.7374L947.909 34.9374L913.109 69.7374L947.909 104.537Z" fill="#FFF4ED">
                <animate attributeName="opacity" dur="6s" repeatCount="indefinite" values="0;1;0" keyTimes="0;0.5;1"
                    begin="2.6" />
            </path>
            <path d="M969.662 104.534L1004.46 69.7342L969.662 34.9342L934.862 69.7342L969.662 104.534Z" fill="#FF9C66">
                <animate attributeName="opacity" dur="6s" repeatCount="indefinite" values="0;1;0" keyTimes="0;0.5;1"
                    begin="2.7" />
            </path>
            <path d="M739.109 104.538L773.909 69.7379L739.109 34.9379L704.309 69.7379L739.109 104.538Z" fill="#FFD6AE">
                <animate attributeName="opacity" dur="6s" repeatCount="indefinite" values="0;1;0" keyTimes="0;0.5;1"
                    begin="2.8" />
            </path>
            <path d="M1239.45 104.537L1274.25 69.7374L1239.45 34.9374L1204.65 69.7374L1239.45 104.537Z" fill="#FFF4ED">
                <animate attributeName="opacity" dur="6s" repeatCount="indefinite" values="0;1;0" keyTimes="0;0.5;1"
                    begin="3" />
            </path>
            <path d="M1261.2 104.534L1296 69.7342L1261.2 34.9342L1226.4 69.7342L1261.2 104.534Z" fill="#FF9C66">
                <animate attributeName="opacity" dur="6s" repeatCount="indefinite" values="0;1;0" keyTimes="0;0.5;1"
                    begin="3.1" />
            </path>
        </g>
        <rect x="955" y="-23.7294" width="424" height="424" fill="url(#pattern0)" />
    </g>

</svg>